<svg xmlns="http://www.w3.org/2000/svg" width="819" height="360" fill="none" viewBox="0 0 819 360"><circle cx="409" cy="180" r="239.5" stroke="#BCD6EA"/><circle cx="409" cy="180" r="319.5" stroke="#BCD6EA"/><circle cx="409" cy="180" r="399.5" stroke="#BCD6EA"/><circle cx="6.154" cy="271.154" r="6.154" fill="#646F83"/><circle cx="6.154" cy="305.615" r="6.154" fill="#646F83"/><circle cx="6.154" cy="288.384" r="6.154" fill="#A8B5CC"/><circle cx="6.154" cy="322.846" r="6.154" fill="#646F83"/><circle cx="40.615" cy="271.154" r="6.154" fill="#646F83"/><circle cx="40.615" cy="305.615" r="6.154" fill="#A8B5CC"/><circle cx="40.615" cy="288.384" r="6.154" fill="#646F83"/><circle cx="40.615" cy="322.846" r="6.154" fill="#646F83"/><circle cx="23.386" cy="271.154" r="6.154" fill="#646F83"/><circle cx="23.386" cy="305.615" r="6.154" fill="#646F83"/><circle cx="23.386" cy="288.384" r="6.154" fill="#646F83"/><circle cx="23.386" cy="322.846" r="6.154" fill="#A8B5CC"/><circle cx="57.847" cy="271.154" r="6.154" fill="#A8B5CC"/><circle cx="57.847" cy="305.615" r="6.154" fill="#646F83"/><circle cx="57.847" cy="288.384" r="6.154" fill="#646F83"/><circle cx="57.847" cy="322.846" r="6.154" fill="#646F83"/><circle cx="761.154" cy="36.154" r="6.154" fill="#646F83"/><circle cx="761.154" cy="70.615" r="6.154" fill="#646F83"/><circle cx="761.154" cy="53.384" r="6.154" fill="#A8B5CC"/><circle cx="761.154" cy="87.846" r="6.154" fill="#646F83"/><circle cx="795.615" cy="36.154" r="6.154" fill="#646F83"/><circle cx="795.615" cy="70.615" r="6.154" fill="#A8B5CC"/><circle cx="795.615" cy="53.384" r="6.154" fill="#646F83"/><circle cx="795.615" cy="87.846" r="6.154" fill="#646F83"/><circle cx="778.386" cy="36.154" r="6.154" fill="#646F83"/><circle cx="778.386" cy="70.615" r="6.154" fill="#646F83"/><circle cx="778.386" cy="53.384" r="6.154" fill="#646F83"/><circle cx="778.386" cy="87.846" r="6.154" fill="#A8B5CC"/><circle cx="812.847" cy="36.154" r="6.154" fill="#A8B5CC"/><circle cx="812.847" cy="70.615" r="6.154" fill="#646F83"/><circle cx="812.847" cy="53.384" r="6.154" fill="#646F83"/><circle cx="812.847" cy="87.846" r="6.154" fill="#646F83"/></svg>